<svg width="48" height="48" viewBox="0 0 48 48" fill="none" xmlns="http://www.w3.org/2000/svg">
<path d="M41.4867 0.12207C40.9336 0.137188 40.4967 0.596326 40.512 1.14942C40.512 1.14942 40.5994 3.96882 38.8207 8.30178C37.0418 12.6347 33.4055 18.3826 25.8441 23.9659C25.8101 23.9885 25.7856 24.0203 25.7561 24.0479C25.6484 24.0252 25.5383 24.0138 25.4279 24.0138C24.5514 24.0141 23.8407 24.681 23.84 25.5041C23.8395 26.3279 24.5506 26.996 25.4279 26.9962C25.4858 26.9887 25.5432 26.9774 25.5999 26.966C26.4254 33.8552 30.4108 37.7307 34.7386 39.507C36.6983 40.3114 38.7138 40.712 40.5629 40.8547V46.8742C40.5607 47.4296 41.0114 47.8803 41.5667 47.8782C42.119 47.876 42.565 47.4265 42.5628 46.8742V40.9036C44.3387 40.8695 45.848 40.6155 46.8968 40.1789C47.4063 39.9669 47.6475 39.382 47.4359 38.8723C47.2239 38.3629 46.6389 38.1216 46.1292 38.3332C45.3736 38.6477 43.7158 38.9559 41.7816 38.9172C39.8473 38.8783 37.6018 38.5169 35.4985 37.6536C32.4718 36.4113 29.7574 34.1522 28.4085 30.1555C29.7799 29.6391 30.8939 28.7408 31.4476 27.4817C32.089 26.0232 31.8545 24.219 30.7269 22.4446C36.0879 17.6516 39.1078 12.8714 40.6742 9.05589C42.5826 4.40752 42.5121 1.09106 42.5121 1.09106C42.4932 0.54178 42.0361 0.107821 41.4867 0.12207ZM29.2054 23.751C29.9367 24.9915 29.9381 25.9414 29.6155 26.6748C29.3404 27.3009 28.755 27.8524 27.8968 28.2178C27.7041 27.2565 27.5726 26.2235 27.5276 25.0889C28.1116 24.6442 28.6646 24.1977 29.2054 23.751ZM19.5062 26.7979C19.8395 26.7827 20.1609 26.9366 20.3597 27.208C20.6855 27.6531 20.5895 28.278 20.145 28.6045C19.2979 29.2312 18.3658 29.2237 18.3658 29.2237C17.8135 29.235 17.3595 28.7936 17.3481 28.2412C17.3368 27.6919 17.7735 27.2388 18.3228 27.2236C18.3228 27.2236 18.7065 27.1787 18.9555 26.995C19.0969 26.8907 19.2652 26.8245 19.44 26.8056C19.4626 26.8019 19.4835 26.7979 19.5062 26.7979Z" fill="black"/>
<path d="M8.84801 33.5421C8.78149 33.5396 8.715 33.545 8.64697 33.5572C8.10343 33.6453 7.73324 34.156 7.81881 34.6999C7.81881 34.6999 8.21603 37.1747 9.76809 39.5728C11.3202 41.9709 14.2279 44.3656 18.7955 43.9655C23.3541 43.5661 26.0189 42.035 27.3657 40.2291C28.7126 38.4232 28.8166 36.455 27.854 35.2253C27.2444 34.4466 26.3588 34.0205 25.4771 33.9186C24.5955 33.8166 23.7119 33.9828 22.8422 34.2644C21.2463 34.7814 19.7122 35.7287 18.4048 36.5613C16.2144 36.5575 14.3013 34.7077 14.3013 34.7077C13.9275 34.3032 13.2971 34.2771 12.8911 34.6492C12.4866 35.023 12.4604 35.6534 12.8325 36.0594C12.8325 36.0594 15.1939 38.7479 18.5961 38.6062C18.773 38.5987 18.9443 38.5412 19.0922 38.4441C20.4162 37.5888 22.0629 36.6237 23.4614 36.1707C24.1606 35.9443 24.7869 35.8517 25.2485 35.905C25.7101 35.9583 25.9984 36.0958 26.2817 36.4577C26.3834 36.5877 26.6779 37.8087 25.7642 39.0339C24.8504 40.259 22.806 41.6047 18.6197 41.9714C14.7808 42.3078 12.7382 40.4867 11.4439 38.487C10.1496 36.4872 9.79739 34.3834 9.79739 34.3834C9.71953 33.9054 9.31368 33.5599 8.84801 33.5421Z" fill="black"/>
<path d="M22.2231 20.7646C22.0262 20.7722 21.8328 20.8429 21.6722 20.962C21.0575 21.4153 19.9301 21.4034 19.9301 21.4034C19.3801 21.3596 18.8985 21.7693 18.8539 22.3194C18.809 22.8722 19.2228 23.3561 19.7757 23.3976C19.7757 23.3976 21.4575 23.6069 22.8617 22.5714C23.3036 22.2425 23.3981 21.6179 23.0707 21.1749C22.915 20.9613 22.6812 20.8181 22.4203 20.7764C22.3545 20.7651 22.2885 20.7646 22.2231 20.7646Z" fill="black"/>
<path d="M14.3461 22.6221C14.1152 22.6188 13.8892 22.6973 13.7073 22.8428C13.0125 23.407 11.9359 23.294 11.9359 23.294C11.3894 23.2074 10.8764 23.5812 10.7914 24.128C10.7048 24.6752 11.0797 25.1884 11.6272 25.2725C11.6272 25.2725 13.4713 25.6191 14.971 24.4014C15.4022 24.0533 15.4697 23.4207 15.1196 22.9913C14.9521 22.7868 14.7106 22.6568 14.4477 22.63C14.4137 22.6262 14.3793 22.6258 14.3461 22.6221Z" fill="black"/>
<path d="M14.0493 3.44043C12.8568 3.45555 11.6112 3.65518 10.3343 4.05762C10.3268 4.0605 10.3155 4.0614 10.3079 4.06518C10.241 4.07652 10.176 4.0916 10.1144 4.11201C10.0679 4.12713 10.0244 4.15173 9.98171 4.17441C9.98043 4.17509 9.97893 4.17563 9.97791 4.17631C9.75605 4.25152 9.53378 4.32901 9.30996 4.41859C1.9369 7.36651 0.166351 13.4212 0.532663 17.8014C0.822175 21.2677 2.23216 23.4515 2.93881 24.4459C2.7676 24.5654 2.73483 24.5177 2.56211 24.6901C2.24954 25.0015 1.92742 25.444 1.84722 26.0475C1.76709 26.6511 1.99948 27.3188 2.45265 27.8561C4.00116 29.6925 6.15438 29.5184 6.7398 29.4499C7.06219 29.8899 8.07266 31.4241 10.6831 32.5729C13.6562 33.8812 18.1506 34.2041 23.8003 30.8014C24.2733 30.5161 24.4256 29.9013 24.1401 29.4284C23.8547 28.9553 23.24 28.803 22.767 29.0886C17.5525 32.2292 13.926 31.8158 11.4877 30.7429C9.04945 29.6699 7.85492 27.9011 7.85492 27.9011C7.64365 27.5859 7.27241 27.417 6.89597 27.4655C6.89597 27.4655 4.86513 27.6213 3.97989 26.571C3.78676 26.342 3.82492 26.3193 3.82568 26.3132C3.82651 26.3057 3.85598 26.2244 3.97239 26.1061C4.20975 25.8695 4.66571 25.6569 4.66571 25.6569C5.29591 25.4056 5.49852 24.6133 5.06618 24.0905C5.06618 24.0905 2.835 21.3414 2.52508 17.6315C2.21176 13.8857 3.43034 8.92064 10.0544 6.27213C10.2925 6.17689 10.5238 6.10809 10.7575 6.02986C11.1305 6.00718 12.047 5.9913 12.8904 6.27023C13.4324 6.44938 13.8971 6.72507 14.2106 7.14914C14.5243 7.57324 14.7422 8.18117 14.654 9.23902C14.5659 10.2945 14.2318 10.9123 13.8415 11.2917C13.4512 11.6711 12.9673 11.8414 12.447 11.8523C11.4066 11.8749 10.439 11.2026 10.3435 10.3679C10.2075 9.18125 10.5283 8.98031 10.8532 8.78786C11.1779 8.59548 11.576 8.58071 11.576 8.58071C12.1253 8.58826 12.5769 8.14948 12.5876 7.60024C12.599 7.04718 12.1584 6.59031 11.6053 6.58067C11.6053 6.58067 10.7128 6.54668 9.83373 7.06897C8.95469 7.58991 8.1559 8.83879 8.35712 10.5963C8.59334 12.6606 10.5676 13.8925 12.4919 13.8522C13.4541 13.8333 14.4594 13.48 15.238 12.7233C16.0165 11.9664 16.5289 10.8382 16.6481 9.40886C16.7672 7.98182 16.4433 6.80494 15.82 5.96158C15.6971 5.79565 15.563 5.64713 15.4236 5.50845C16.5255 5.6483 17.5591 5.965 18.5154 6.4264C20.8897 7.57198 22.7909 9.6074 23.9177 11.7487C26.1713 16.0312 25.447 20.9323 25.447 20.9323C25.3654 21.476 25.7376 21.9838 26.2809 22.069C26.8274 22.1555 27.3404 21.7817 27.4255 21.235C27.4255 21.235 28.3067 15.8041 25.6833 10.819C24.3717 8.32638 22.2119 5.98894 19.3865 4.62563C17.9738 3.94399 16.3889 3.5205 14.6911 3.45179C14.4787 3.44423 14.2649 3.44043 14.0493 3.44043Z" fill="black"/>
</svg>
