<svg width="48" height="48" viewBox="0 0 48 48" fill="none" xmlns="http://www.w3.org/2000/svg">
<path d="M11.1787 21.1574C7.87746 21.1649 2.79516 21.2246 2.77695 21.225C2.77691 21.225 2.76184 21.225 2.76184 21.225C2.75923 21.2276 2.75812 21.2287 2.75434 21.2326C1.99106 21.2363 1.24699 21.4676 0.755578 21.9938C0.25891 22.5258 0.0923841 23.2099 0.0602959 23.8898C0.0338392 24.4086 0.237627 24.9043 0.505747 25.2359C0.773715 25.5678 1.08239 25.7669 1.36378 25.9099C1.50022 25.9791 1.63474 26.0354 1.76078 26.0822C1.84431 27.5542 2.16099 30.9005 3.36254 34.2903C4.16539 36.556 5.36939 38.8708 7.22638 40.6583C9.08338 42.446 11.6244 43.6691 14.8612 43.6972C26.8598 43.8015 33.185 43.7551 33.185 43.7551L33.1117 43.7475C33.1117 43.7475 36.1937 43.9429 39.3636 42.1089C42.4323 40.3338 45.5595 36.5815 46.1966 29.4018C46.2881 29.3791 46.3746 29.3625 46.4699 29.3285C46.832 29.1977 47.2545 28.9634 47.5622 28.5305C47.8698 28.0978 47.9965 27.497 47.9206 26.89C47.772 25.6988 46.8815 24.9457 46.1697 24.6956C45.4578 24.4454 44.8236 24.5116 44.8236 24.5116C44.731 24.513 31.0893 24.7183 25.359 24.6662C22.6571 24.6397 20.6704 23.8581 18.8882 23.018C17.106 22.1778 15.5289 21.206 13.6318 21.1741C13.1806 21.159 12.2791 21.1536 11.1787 21.1574ZM11.2895 23.1445C12.3705 23.1419 13.2275 23.1444 13.5904 23.1558C13.5942 23.1559 13.6017 23.1578 13.6055 23.1578C14.7848 23.1767 16.1807 23.9312 18.0485 24.8118C19.9163 25.6924 22.2602 26.62 25.3462 26.6479C31.1718 26.7004 44.9193 26.4952 44.9193 26.4952C44.9458 26.4935 44.968 26.4914 44.9926 26.4876C44.9926 26.4876 45.2587 26.48 45.5116 26.5689C45.7649 26.6577 45.8994 26.663 45.959 27.1402C45.9893 27.3674 45.9477 27.3734 45.9439 27.3806C45.9402 27.3881 45.9054 27.4233 45.7985 27.4618C45.5846 27.5389 45.2407 27.5412 45.2407 27.5412C45.2142 27.5382 45.1878 27.5374 45.1613 27.5336C45.1613 27.5336 26.9334 27.6346 23.0762 27.6346C20.722 27.5869 19.4029 26.8879 17.8197 26.0832C16.2365 25.2785 14.3995 24.3835 11.5465 24.3556C6.32631 24.3046 2.89954 24.2978 2.76518 24.2978C2.75384 24.2974 2.74434 24.2979 2.733 24.2978C2.69105 24.2902 2.4767 24.2528 2.26425 24.1451C2.14784 24.0865 2.06401 24.0154 2.0436 23.9905V23.9829C2.0625 23.5678 2.15547 23.4022 2.20612 23.3477C2.25714 23.2933 2.34855 23.2082 2.77545 23.2082C2.77806 23.2082 2.77924 23.2082 2.78306 23.2082C2.78306 23.2082 8.04666 23.1524 11.2895 23.1445ZM3.76704 26.2918C4.5482 26.294 6.89784 26.2994 11.5258 26.3421C13.9912 26.3648 15.356 27.0579 16.9275 27.8567C18.4989 28.6554 20.2841 29.5649 23.0399 29.6211C23.0474 29.6212 23.0551 29.6212 23.0626 29.6211C26.7681 29.6211 42.7325 29.5304 44.2025 29.5224C43.5677 35.9992 40.8988 38.9308 38.3768 40.3897C35.7329 41.9191 33.2384 41.7726 33.2384 41.7726C33.212 41.7716 33.1893 41.7716 33.1651 41.7726C33.1651 41.7726 26.8669 41.8244 14.88 41.7204C12.1204 41.6977 10.1521 40.7192 8.60679 39.2316C7.06146 37.7441 5.974 35.7076 5.23869 33.6324C4.19894 30.6983 3.87147 27.7724 3.76704 26.2918ZM33.7426 30.8064C33.1941 30.7951 32.7412 31.2322 32.7316 31.7806C32.7203 32.3283 33.1581 32.7801 33.7058 32.7897L36.8898 32.8414C37.4405 32.8528 37.8945 32.4122 37.9008 31.8614C37.9083 31.313 37.4673 30.8635 36.9189 30.8582L33.7426 30.8064ZM39.6711 30.8586C39.1234 30.8564 38.6777 31.2987 38.6757 31.8464C38.6735 32.397 39.1203 32.844 39.6711 32.8418H40.6588C41.2095 32.844 41.6565 32.397 41.6544 31.8464C41.6522 31.2987 41.2065 30.8564 40.6588 30.8586H39.6711Z" fill="#010100"/>
<path d="M35.929 12.8105C33.966 12.8105 32.349 14.4296 32.349 16.3926C32.349 18.3555 33.966 19.9648 35.929 19.9648C37.892 19.9648 39.5012 18.3555 39.5012 16.3926C39.5012 14.4296 37.892 12.8105 35.929 12.8105ZM35.929 14.8125C36.8111 14.8125 37.5013 15.5104 37.5013 16.3926C37.5013 17.2747 36.8111 17.9648 35.929 17.9648C35.0469 17.9648 34.3489 17.2747 34.3489 16.3926C34.3489 15.5104 35.0469 14.8125 35.929 14.8125Z" fill="#010100"/>
<path d="M36.7336 4.23438C35.2576 4.23438 34.0383 5.45177 34.0383 6.92778C34.0383 8.40384 35.2576 9.6231 36.7336 9.6231C38.2097 9.6231 39.427 8.40384 39.427 6.92778C39.427 5.45177 38.2097 4.23438 36.7336 4.23438ZM36.7336 6.23441C37.1288 6.23441 37.427 6.53263 37.427 6.92778C37.427 7.32297 37.1288 7.62111 36.7336 7.62111C36.3385 7.62111 36.0384 7.32331 36.0384 6.92778C36.0384 6.53263 36.3385 6.23441 36.7336 6.23441Z" fill="#010100"/>
<path d="M41.5833 9.00977C40.1072 9.00977 38.8879 10.2291 38.8879 11.7051C38.8879 13.1812 40.1072 14.3985 41.5833 14.3985C43.0593 14.3985 44.2766 13.1812 44.2766 11.7051C44.2766 10.2291 43.0593 9.00977 41.5833 9.00977ZM41.5833 11.0098C41.9784 11.0098 42.2767 11.3099 42.2767 11.7051C42.2767 12.1003 41.9784 12.3985 41.5833 12.3985C41.1881 12.3985 40.888 12.1003 40.888 11.7051C40.888 11.31 41.188 11.0098 41.5833 11.0098Z" fill="#010100"/>
</svg>
