<svg width="47" height="48" viewBox="0 0 47 48" fill="none" xmlns="http://www.w3.org/2000/svg">
<path d="M23.1369 0.214844C20.8504 0.218623 18.9805 2.09176 18.9805 4.37886V6.72654C16.2117 7.02209 13.9611 9.18811 13.9611 12.0332V12.3575C12.2749 12.4285 10.9122 13.8386 10.9122 15.5411C10.9122 16.9244 11.8133 18.1084 13.0548 18.543C11.8291 19.6565 11.0528 21.2585 11.0528 23.041V41.6934C11.0528 45.0473 13.7809 47.7852 17.1348 47.7852H28.8575C32.2114 47.7852 34.9416 45.0473 34.9416 41.6934V23.041C34.9416 21.2588 34.165 19.6565 32.9396 18.543C34.1831 18.1084 35.088 16.9244 35.088 15.5411C35.088 13.8386 33.7179 12.4287 32.0314 12.3575V12.0332C32.0314 9.30018 29.9128 7.28109 27.3008 6.84372V4.37886C27.3008 2.09754 25.4366 0.236273 23.1583 0.222629C23.1508 0.222592 23.1444 0.214844 23.1369 0.214844ZM23.1369 2.21678H23.1444C24.3576 2.21999 25.3065 3.16473 25.3065 4.37886V7.41207C25.3065 7.38939 25.3044 7.40827 25.299 7.47857C25.2801 8.04296 25.7303 8.51183 26.2951 8.51376H26.5022C28.4729 8.51376 30.0295 10.0626 30.0295 12.0333V12.1818H15.9591V12.0333C15.9591 10.0626 17.5177 8.51376 19.4885 8.51376H19.9826C20.5356 8.51263 20.9827 8.06284 20.9807 7.50982V7.41236V4.37915C20.9807 3.1649 21.9235 2.21999 23.1369 2.21678ZM14.0938 14.3516H31.8985C32.5723 14.3516 33.088 14.8671 33.088 15.541C33.088 16.2147 32.5723 16.7207 31.8985 16.7207H14.0938C13.42 16.7207 12.9121 16.2147 12.9121 15.541C12.9121 14.8671 13.42 14.3516 14.0938 14.3516ZM17.1348 18.9512H28.8575C31.138 18.9512 32.9473 20.7605 32.9473 23.041V41.6933C32.9473 43.9738 31.138 45.7832 28.8575 45.7832H17.1348C14.8543 45.7832 13.0529 43.9738 13.0529 41.6933V38.4218L17.668 38.4105C18.2203 38.4084 18.6663 37.9589 18.6641 37.4066C18.663 36.8536 18.2132 36.4063 17.6602 36.4085L13.0529 36.4237V32.9198L21.7716 32.9122C22.3238 32.9144 22.7734 32.4684 22.7755 31.9161C22.7777 31.3608 22.3269 30.91 21.7716 30.9122L13.0529 30.9198V27.0995L17.6153 27.1108C18.1676 27.1129 18.6171 26.667 18.6193 26.1147C18.6214 25.5624 18.1755 25.1129 17.6232 25.1108L13.0529 25.0957V23.0429C13.0529 20.7624 14.8543 18.9512 17.1348 18.9512Z" fill="black"/>
</svg>
