<svg width="48" height="48" viewBox="0 0 48 48" fill="none" xmlns="http://www.w3.org/2000/svg">
<path d="M14.0657 3.59668C10.6067 3.59513 6.80586 5.01322 3.82351 9.39354C-0.143402 15.22 0.824941 20.7314 2.81566 24.5576C4.75569 28.2865 7.58655 30.5633 7.73165 30.6787L23.0364 44.8193C23.2889 45.0457 23.6388 45.1289 23.966 45.0401C24.079 45.0136 24.1864 44.9668 24.2824 44.9033C24.1993 44.9611 24.1104 45.0094 24.0129 45.0401C24.3394 45.1281 24.6887 45.0438 24.9407 44.8193L40.2473 30.6787L40.2549 30.6711C40.4227 30.5374 43.2313 28.2707 45.163 24.5579C47.1537 20.7317 48.1201 15.2203 44.1532 9.39383C41.1709 5.01351 37.37 3.59561 33.9111 3.59697C32.7581 3.59739 31.6426 3.75454 30.6084 4.01295C27.54 4.78001 25.0666 6.33887 23.9892 7.095C22.9114 6.33887 20.4365 4.78001 17.3681 4.01295C16.3339 3.75443 15.2186 3.5971 14.0657 3.59668ZM14.0695 5.54983C15.0312 5.5725 15.9765 5.72706 16.8839 5.9541C20.5138 6.86156 23.3273 9.09083 23.3273 9.09083C23.4063 9.14298 23.495 9.17586 23.585 9.20421C23.6076 9.21177 23.6243 9.22312 23.6455 9.23068C23.6568 9.23446 23.6644 9.23823 23.6757 9.24579C23.777 9.27224 23.8816 9.28435 23.9863 9.27981C24.0956 9.28359 24.2052 9.27222 24.3107 9.24198C24.3145 9.2407 24.3182 9.23944 24.322 9.23823C24.4399 9.21178 24.5518 9.16148 24.652 9.09382C24.652 9.09382 27.4654 6.86462 31.0953 5.95716C34.7252 5.04969 38.9445 5.29987 42.4997 10.5216C46.0645 15.7573 45.1562 20.2386 43.3883 23.6368C41.6203 27.0351 38.9566 29.1544 38.9566 29.1544C38.9377 29.1695 38.917 29.1884 38.8981 29.205L23.9898 42.9765L9.08161 29.205C9.06271 29.1861 9.04388 29.171 9.02498 29.1544C9.02498 29.1544 6.35937 27.0351 4.59135 23.6368C2.82336 20.2386 1.91336 15.7573 5.4781 10.5216C8.14452 6.60528 11.1843 5.48213 14.0695 5.54983ZM21.1065 13.542C20.5542 13.542 20.1066 13.9897 20.1066 14.542V18.4112H16.2374C15.6859 18.4123 15.2395 18.8597 15.2394 19.4112V25.1533C15.2395 25.7048 15.6859 26.1522 16.2374 26.1533H20.1066V30.0205C20.1066 30.5728 20.5542 31.0205 21.1065 31.0205H26.8488C27.401 31.0205 27.8486 30.5728 27.8487 30.0205V26.1533H31.716C32.2682 26.1532 32.7158 25.7056 32.7159 25.1533V19.4112C32.7158 18.8589 32.2682 18.4112 31.716 18.4112H27.8487V14.542C27.8486 13.9897 27.401 13.542 26.8488 13.542H21.1065ZM22.1066 15.5439H25.8488V19.4112C25.8488 19.9634 26.2965 20.4111 26.8488 20.4111H30.7178V24.1533H26.8488C26.2965 24.1534 25.8488 24.601 25.8488 25.1533V29.0205H22.1066V25.1533C22.1065 24.601 21.6587 24.1534 21.1065 24.1533H17.2394V20.4111H21.1065C21.6587 20.4111 22.1065 19.9634 22.1066 19.4112V15.5439Z" fill="black"/>
</svg>
