<svg width="48" height="48" viewBox="0 0 48 48" fill="none" xmlns="http://www.w3.org/2000/svg">
<path d="M3.64073 5.93262C3.1212 5.93284 2.68833 6.33089 2.64464 6.84861C2.64464 6.84861 2.53993 8.1652 2.50969 10.1552H2.27543C1.11825 10.1552 0.15625 11.1252 0.15625 12.2822V17.9795C0.15625 19.1364 1.11825 20.0986 2.27543 20.0986H3.19724C3.96781 24.8806 5.51743 30.1407 8.67576 34.3623C12.0222 38.8354 17.2455 42.0673 24.871 42.0673C32.4966 42.0673 37.5893 38.8263 40.7344 34.3388C43.6932 30.1172 44.9967 24.8723 45.5448 20.1005H45.7188C46.876 20.1005 47.8437 19.1383 47.8437 17.9814V12.2822C47.8437 11.1433 46.9047 10.1926 45.7715 10.1631C45.6471 8.14205 45.4725 6.7978 45.4725 6.7978C45.4052 6.30317 44.9834 5.93394 44.4843 5.93262H3.64073ZM4.60753 7.93455H43.5627C43.6054 8.28302 43.6662 9.07448 43.7463 10.1552H36.7131C36.5876 10.1552 36.5479 10.1666 36.5275 10.1703C36.0283 10.1892 35.547 10.2807 35.0959 10.436C34.9462 10.4878 34.7973 10.5468 34.6545 10.6118C34.5116 10.6768 34.3699 10.7486 34.2346 10.8265C34.0993 10.9043 33.967 10.9905 33.84 11.0804C33.7134 11.17 33.5883 11.2668 33.4707 11.3677C32.4084 12.2811 31.737 13.634 31.7364 15.1314C31.744 17.7487 33.8116 19.9183 36.4238 20.0689C36.5194 20.0802 36.6174 20.0992 36.713 20.0992H43.4513C43.364 20.8246 43.2529 21.5583 43.1289 22.2945C42.4226 22.0926 41.6928 21.9657 40.9453 21.9332C40.9434 21.9331 40.9415 21.9331 40.9377 21.9332C40.9264 21.9336 40.9169 21.9407 40.9056 21.9407C40.7551 21.9331 40.6044 21.9332 40.4544 21.9332C35.8037 21.9558 31.3978 25.2093 29.2727 30.0328C29.2727 30.0354 29.2727 30.0365 29.2727 30.0403C27.8872 33.2202 27.6487 36.7202 28.6262 39.7669C27.4685 39.9619 26.2202 40.0658 24.8705 40.0658C23.2854 40.0658 21.8371 39.9169 20.4994 39.6498C21.4338 36.6308 21.1856 33.1798 19.8177 30.0404V30.0365V30.0326C17.6926 25.2092 13.2868 21.9576 8.63608 21.9349C8.48603 21.9349 8.33521 21.9333 8.18486 21.9406C8.17352 21.9406 8.16598 21.933 8.15464 21.933C8.15268 21.933 8.14885 21.933 8.14507 21.933C7.32064 21.9671 6.51598 22.1129 5.74273 22.3549C5.57794 21.5986 5.42675 20.8443 5.30131 20.099H11.2798C11.408 20.099 11.4858 20.0877 11.561 20.0763C12.4039 20.031 13.1858 19.7687 13.8638 19.3537C13.8676 19.3508 13.8714 19.3461 13.879 19.3423C14.0241 19.2528 14.1638 19.1568 14.2988 19.0532C14.377 18.9931 14.4549 18.9342 14.5294 18.8696C14.5864 18.82 14.6405 18.7671 14.6953 18.7153C14.7883 18.6273 14.8786 18.537 14.9648 18.4421C15.0343 18.3657 15.1032 18.2901 15.1678 18.2096C15.1791 18.1983 15.1904 18.187 15.198 18.1718C15.2207 18.1454 15.2377 18.1155 15.2584 18.0879C15.3148 18.0131 15.3703 17.9375 15.4225 17.8593C15.4376 17.8404 15.449 17.8207 15.4638 17.8007L15.4677 17.7968C15.4866 17.7704 15.4978 17.739 15.5163 17.711C15.5659 17.6309 15.6139 17.55 15.6589 17.4668C15.6702 17.4441 15.6853 17.4234 15.6978 17.4003C15.7053 17.3852 15.7091 17.3739 15.7167 17.3595C15.7745 17.2465 15.8274 17.1316 15.8769 17.0137C15.8807 17.0024 15.8884 16.991 15.8921 16.9797C15.8942 16.9759 15.8959 16.9683 15.8996 16.9646C15.9559 16.8262 16.0062 16.6845 16.05 16.5407C16.1861 16.0921 16.2613 15.6168 16.2628 15.1266C16.2625 14.4618 16.1282 13.8237 15.8879 13.2419C15.8278 13.0968 15.7617 12.9539 15.6888 12.8161C15.6158 12.6782 15.5338 12.5417 15.4484 12.4118C15.2772 12.1514 15.0821 11.9088 14.8663 11.6852C14.6501 11.4615 14.414 11.2584 14.1593 11.0779C13.3958 10.5372 12.4694 10.2032 11.4718 10.1677C11.4075 10.1601 11.3433 10.1526 11.2805 10.1526H4.5344C4.56464 9.05965 4.5807 8.29988 4.60753 7.93455ZM2.27554 12.1553H3.49425H8.07829V18.0986H4.04697H2.27554C2.19202 18.0986 2.15836 18.0646 2.15836 17.9814V12.2823C2.15836 12.1983 2.19239 12.1553 2.27554 12.1553ZM10.0782 12.1553H11.2815C11.2342 12.1553 11.2625 12.1553 11.3635 12.1628C11.3748 12.1657 11.3898 12.1666 11.4012 12.1704C11.6019 12.1779 11.7993 12.2044 11.9871 12.2486C12.175 12.2924 12.3568 12.3552 12.5282 12.4323C12.6998 12.5094 12.8626 12.6031 13.0145 12.7097C13.166 12.8163 13.3078 12.9384 13.4364 13.071C13.9511 13.6031 14.266 14.3285 14.2664 15.1316C14.265 15.7246 14.0892 16.2762 13.7899 16.7371C13.6905 16.8897 13.5774 17.0334 13.452 17.1648C12.9469 17.6966 12.2452 18.042 11.4519 18.0847C11.4217 18.0848 11.3945 18.0861 11.3661 18.0885C11.3472 18.0911 11.3257 18.096 11.3057 18.0998C11.3019 18.1008 11.2944 18.0998 11.2831 18.0998H10.0799L10.0782 12.1553ZM36.713 12.1553H37.922V18.0986H36.713C36.7054 18.0987 36.6997 18.0992 36.6959 18.0986C36.6441 18.091 36.592 18.0835 36.5399 18.0835C35.5501 18.0302 34.701 17.5061 34.202 16.7358C34.0028 16.4282 33.8599 16.0793 33.7859 15.7065C33.7482 15.5206 33.7281 15.3254 33.7274 15.1284C33.7274 15.1095 33.7312 15.0906 33.735 15.0717C33.7501 14.2911 34.0595 13.5868 34.563 13.0678C35.0779 12.5375 35.7928 12.2001 36.5943 12.1694C36.6094 12.1671 36.6245 12.1656 36.6373 12.1618C36.7352 12.1543 36.7568 12.1553 36.713 12.1553ZM39.924 12.1553H44.8302H45.7189C45.8028 12.1553 45.8439 12.1983 45.8439 12.2823V17.9795C45.8439 18.0634 45.8028 18.0985 45.7189 18.0985H44.6544H39.924V12.1553ZM8.23446 23.9365C12.0732 23.7694 16.0768 26.5044 17.9865 30.8388C19.191 33.6033 19.2087 36.5617 18.3908 39.0986C14.8611 37.9375 12.2587 35.8151 10.2775 33.1669C8.3557 30.5981 7.0984 27.5236 6.24619 24.3955L6.30479 24.4257C6.30101 24.4106 6.29726 24.3955 6.29348 24.3807C6.92414 24.1751 7.55233 23.9667 8.23446 23.9365ZM40.8576 23.9365C41.513 23.9667 42.1189 24.1591 42.7247 24.3564C42.0217 27.5087 40.9048 30.6074 39.0958 33.1885C37.1447 35.9723 34.4929 38.1841 30.7228 39.292L30.7696 39.2118C30.7583 39.2154 30.747 39.2194 30.7356 39.2232C29.877 36.6593 29.8809 33.6475 31.1049 30.8384C33.0147 26.5039 37.0188 23.7696 40.8576 23.9365Z" fill="black"/>
</svg>
