<svg width="24" height="24" viewBox="0 0 24 24" fill="none" xmlns="http://www.w3.org/2000/svg">
<path d="M21.086 6.77206L17.227 2.91306C16.798 2.48406 16.1 2.48406 15.671 2.91306L4.68601 13.9001L4.69701 13.9111L3.00401 19.4671C2.86001 19.8681 2.95601 20.3051 3.25401 20.6091C3.46601 20.8251 3.74601 20.9401 4.03601 20.9401C4.15501 20.9401 4.275 20.9211 4.392 20.8811L10.089 19.3031L10.1 19.3141L21.086 8.32806C21.515 7.89906 21.515 7.20106 21.086 6.77206ZM5.517 18.3891L6.49601 15.7111L8.28901 17.5041L5.517 18.3891ZM7.51401 13.9001L13.875 7.53906L16.461 10.1251L10.1 16.4861L7.51401 13.9001ZM17.875 8.71106L15.289 6.12506L16.45 4.96406L19.036 7.55006L17.875 8.71106Z" fill="black"/>
</svg>
