<svg width="24" height="24" viewBox="0 0 24 24" fill="none" xmlns="http://www.w3.org/2000/svg">
<path d="M5 5.27223C5.00071 5.82448 5.44831 6.27208 5.99985 6.27208L16.3137 6.27208L5.6463 16.9395C5.25597 17.3298 5.25597 17.9634 5.6463 18.3537C6.03662 18.744 6.67019 18.744 7.06051 18.3537L17.7279 7.68629L17.7279 18.0002C17.7286 18.5524 18.1762 19 18.7278 19C19.28 18.9993 19.7276 18.5517 19.7276 18.0002L19.7276 5.37264C19.7276 5.07848 19.6131 4.80271 19.4052 4.59482C19.1973 4.38693 18.9215 4.27238 18.6274 4.27238L5.99985 4.27238C5.4476 4.27167 4.99929 4.71998 5 5.27223Z" fill="#727579"/>
</svg>
