<svg width="24" height="24" viewBox="0 0 24 24" fill="none" xmlns="http://www.w3.org/2000/svg">
<path d="M18.7278 5C18.1755 5.00071 17.7279 5.44831 17.7279 5.99985L17.7279 16.3137L7.06051 5.6463C6.67019 5.25597 6.03662 5.25597 5.6463 5.6463C5.25597 6.03662 5.25597 6.67019 5.6463 7.06051L16.3137 17.7279L5.99985 17.7279C5.4476 17.7286 5 18.1762 5 18.7278C5.00071 19.28 5.44831 19.7276 5.99985 19.7276H18.6274C18.9215 19.7276 19.1973 19.6131 19.4052 19.4052C19.6131 19.1973 19.7276 18.9215 19.7276 18.6274V5.99985C19.7283 5.4476 19.28 4.99929 18.7278 5Z" fill="#727579"/>
</svg>
