<svg width="34" height="34" viewBox="0 0 34 34" fill="none" xmlns="http://www.w3.org/2000/svg">
<path d="M16.9999 31.1668C9.18842 31.1668 2.83325 24.8117 2.83325 17.0002C2.83325 9.18866 9.18842 2.8335 16.9999 2.8335C24.8114 2.8335 31.1666 9.18866 31.1666 17.0002C31.1666 24.8117 24.8114 31.1668 16.9999 31.1668ZM16.9999 5.66683C10.751 5.66683 5.66659 10.7512 5.66659 17.0002C5.66659 23.2491 10.751 28.3335 16.9999 28.3335C23.2488 28.3335 28.3333 23.2491 28.3333 17.0002C28.3333 10.7512 23.2488 5.66683 16.9999 5.66683Z" fill="#4ECA78"/>
<path d="M14.7334 23.174C14.3339 23.174 13.9358 23.0225 13.6313 22.7179L9.48184 18.5685C8.92793 18.0145 8.92793 17.1178 9.48184 16.5653C10.0358 16.0128 10.9325 16.0114 11.485 16.5653L14.7334 19.8137L22.3197 12.2274C22.8736 11.6735 23.7703 11.6735 24.3228 12.2274C24.8768 12.7814 24.8768 13.6781 24.3228 14.2306L15.8342 22.7193C15.531 23.0225 15.1329 23.174 14.7334 23.174Z" fill="#4ECA78"/>
</svg>
