<svg width="214" height="257" viewBox="0 0 214 257" fill="none" xmlns="http://www.w3.org/2000/svg">
<path d="M99.4195 256.945C99.4195 256.568 101.444 252.271 103.918 247.397C107.469 240.401 110.212 236.682 116.941 229.744C126.079 220.319 132.933 216.028 151.035 208.396C165.589 202.261 179.716 194.374 184.962 189.454C194.074 180.91 198.402 169.419 197.728 155.553C197.472 150.288 196.696 145.859 195.628 143.578C190.876 133.425 179.385 125.335 169.715 125.335C164.791 125.335 164.578 125.439 165.209 127.522C168.22 137.463 168.726 141.506 167.695 147.375C167.114 150.68 165.898 155.172 164.993 157.358L163.347 161.334V150.865C163.347 139.09 161.571 133.418 156.051 127.565L153.114 124.451L156.625 119.221C163.691 108.695 166.032 93.7114 161.958 85.0784C159.843 80.5947 155.55 76.4928 149.615 73.2824C144.655 70.6002 133.037 70.8289 124.571 73.7755C111.888 78.1896 104.312 89.8907 107.059 100.82C107.694 103.348 108.29 108.959 108.383 113.288C108.669 126.625 113.417 131.749 125.291 131.535L131.748 131.419L128.132 133.09C126.144 134.009 121.179 137.224 117.099 140.235C108.722 146.417 104.478 147.936 95.6312 147.92C88.2862 147.904 81.4694 145.464 73.4396 139.971C70.3499 137.857 67.4732 136.349 67.0469 136.619C65.2616 137.751 66.4212 142.875 69.3497 146.795C73.6148 152.504 81.6148 157.97 89.4752 160.545C94.66 162.244 98.3751 162.72 106.523 162.731C112.252 162.737 118.432 162.424 120.255 162.033C125.323 160.944 121.519 162.9 114.927 164.773C99.2006 169.239 80.5809 164.471 69.632 153.173C63.3222 146.662 61.1307 141.927 61.0192 134.566C60.9074 127.18 60.7749 126.307 59.7654 126.307C59.3122 126.307 58.7233 128.293 58.4567 130.719C58.19 133.146 57.2322 135.97 56.328 136.995C54.0676 139.557 46.7877 141.879 38.4497 142.696C30.2782 143.497 26.1122 146.142 21.6474 153.365C12.7044 167.833 16.8691 182.736 35.4916 202.907C47.6979 216.129 70.6792 234.241 89.2812 245.301C97.5057 250.191 93.4243 249.605 78.1644 243.704C63.7971 238.148 41.2956 225.573 30.6962 217.176C10.6633 201.306 0.00333078 182.572 1.10242e-06 163.231C-0.0031401 141.409 6.70588 134.08 28.5236 132.072C34.4396 131.528 41.837 130.676 44.9624 130.18C54.0548 128.735 56.5435 124.222 53.3466 114.975C53.0072 113.993 54.8592 116.034 57.4625 119.511C64.5232 128.94 70.2568 133.346 82.8457 139.018C92.3914 143.319 107.016 142.171 113.296 136.629L115.875 134.353L111.199 131.984C104.726 128.705 102.917 124.982 103.671 116.496C104.129 111.351 103.859 109.09 102.304 105.043C100.045 99.1634 99.7894 89.8261 101.734 84.2324C103.656 78.7038 107.9 72.9259 112.679 69.3303C133.091 53.972 162.831 59.1245 171.658 79.5486C174.578 86.305 174.902 96.2413 172.445 103.686C171.348 107.009 170.451 109.877 170.451 110.058C170.451 110.24 173.975 110.363 178.284 110.332C185.289 110.281 186.786 110.613 192.452 113.475C199.311 116.939 206.021 123.803 209.271 130.68C211.489 135.373 214.022 147.251 214 152.849C213.924 171.578 200.727 195.419 182.83 209.157C177.752 213.054 162.479 221.193 148.668 227.36C128.112 236.539 114.632 244.443 104.392 253.321C101.657 255.692 99.4195 257.323 99.4195 256.945ZM63.5487 104.163C63.3388 93.315 67.1316 88.3754 83.5572 78.1044C96.4339 70.0525 104.24 62.7774 107.433 55.8518C108.756 52.9841 109.837 49.9548 109.837 49.1201C109.837 48.2854 110.319 47.6024 110.907 47.6024C112.403 47.6024 111.135 56.7005 108.923 61.8365C106.254 68.0356 101.058 72.6219 86.6246 81.5197C68.1188 92.9281 65.794 95.4203 64.3679 105.379L63.6668 110.275L63.5487 104.163ZM87.581 102.596C86.0183 101.888 83.9194 100.366 82.9167 99.2118L81.0936 97.1143L84.5437 98.5933C86.4412 99.4067 89.7122 100.072 91.8125 100.072C94.4452 100.072 95.6312 100.493 95.6312 101.426C95.6312 104.04 91.9506 104.575 87.581 102.596ZM26.3396 82.6416C24.6335 78.4298 23.5595 77.2157 19.8194 75.2713C11.046 70.71 6.60565 62.4262 6.60565 50.6197C6.60565 39.4877 13.6564 27.0004 22.8362 21.8744C26.986 19.5572 29.3254 19.0016 36.9129 18.531L46.0126 17.9668L51.1435 13.3605C57.1351 7.98161 67.4737 2.5574 74.6053 1.05108C96.5316 -3.58019 120.076 7.47144 129.366 26.7551C132.413 33.081 132.84 34.8972 133.166 42.9281L133.533 51.9749L131.817 47.0448C127.027 33.2816 119.161 25.5129 103.332 18.9144C84.9809 11.264 65.2907 15.208 49.461 29.7051L43.5418 35.1261V32.0014V28.8767L39.2636 29.4783C31.4249 30.5806 24.7599 35.8344 20.946 43.9174C17.3145 51.6137 18.6582 63.0384 23.8634 68.7229C26.2781 71.3599 27.9301 71.5233 28.9094 69.222C29.5032 67.8267 29.7563 68.0447 30.3194 70.4365C31.6268 75.9902 31.3328 85.1716 29.8059 86.4717C28.5952 87.5025 28.0764 86.9293 26.3396 82.6416Z" fill="#4A4A52" fill-opacity="0.3"/>
</svg>
