<svg width="48" height="48" viewBox="0 0 48 48" fill="none" xmlns="http://www.w3.org/2000/svg">
<path d="M24 0.192383C20.4315 0.192269 17.5194 3.10447 17.5195 6.67287V29.2177C15.0539 31.1981 13.4972 34.1086 13.4883 37.2939C13.4883 37.2959 13.4883 37.2977 13.4883 37.3015C13.4884 43.0941 18.2073 47.8075 24 47.8074C29.7926 47.8075 34.5116 43.0941 34.5117 37.3015C34.5117 34.1071 32.9547 31.1832 30.4824 29.198V6.67455C30.4826 3.10614 27.5684 0.192269 24 0.192383ZM24 2.19236C26.4875 2.19232 28.4806 4.18534 28.4804 6.67287V29.5342C28.4834 29.8585 28.6437 30.1616 28.9101 30.3467C31.1696 31.9408 32.5118 34.5357 32.5118 37.2998C32.5117 42.0116 28.7117 45.8038 24 45.8037C19.2882 45.8038 15.4884 42.0116 15.4883 37.2998C15.4959 34.5414 16.8457 31.9583 19.0996 30.3682C19.3619 30.1815 19.5182 29.8796 19.5195 29.5576V6.67287C19.5194 4.18534 21.5125 2.19232 24 2.19236ZM24 12.335C23.4477 12.3371 23.0017 12.7866 23.0039 13.3389V32.7959C20.9166 33.2914 19.4406 35.1526 19.4336 37.2979C19.4337 39.8619 21.5121 41.9404 24.0761 41.9404C26.6401 41.9404 28.7187 39.8619 28.7187 37.2979C28.7177 35.0922 27.165 33.1917 25.0039 32.751V13.3389C25.0061 12.7835 24.5553 12.3328 24 12.335Z" fill="black"/>
</svg>
