<svg width="34" height="34" viewBox="0 0 34 34" fill="none" xmlns="http://www.w3.org/2000/svg">
<path d="M16.9999 21.25C16.2179 21.25 15.5833 20.6153 15.5833 19.8333V9.91667C15.5833 9.13467 16.2179 8.5 16.9999 8.5C17.7819 8.5 18.4166 9.13467 18.4166 9.91667V19.8333C18.4166 20.6153 17.7819 21.25 16.9999 21.25Z" fill="#E84A4A"/>
<path d="M16.9999 25.5002C16.6273 25.5002 16.2618 25.3486 15.9983 25.0851C15.7348 24.8216 15.5833 24.4561 15.5833 24.0835C15.5833 23.9915 15.5932 23.898 15.6116 23.8073C15.6286 23.7166 15.6569 23.6274 15.6923 23.5424C15.7278 23.456 15.7717 23.3738 15.8227 23.2973C15.8737 23.2194 15.9332 23.1471 15.9983 23.082C16.0635 23.0168 16.1358 22.9573 16.2137 22.9063C16.2902 22.8553 16.3723 22.8114 16.4588 22.776C16.5438 22.7405 16.633 22.7122 16.7237 22.6952C17.1841 22.6017 17.6728 22.7533 18.0015 23.082C18.0667 23.1471 18.1262 23.2194 18.1772 23.2973C18.2282 23.3738 18.2721 23.456 18.3075 23.5424C18.3429 23.6274 18.3713 23.7166 18.3883 23.8073C18.4067 23.898 18.4166 23.9915 18.4166 24.0835C18.4166 24.4561 18.265 24.8216 18.0015 25.0851C17.738 25.3486 17.3725 25.5002 16.9999 25.5002Z" fill="#E84A4A"/>
<path d="M16.9999 31.1668C9.18842 31.1668 2.83325 24.8117 2.83325 17.0002C2.83325 9.18866 9.18842 2.8335 16.9999 2.8335C24.8114 2.8335 31.1666 9.18866 31.1666 17.0002C31.1666 24.8117 24.8114 31.1668 16.9999 31.1668ZM16.9999 5.66683C10.751 5.66683 5.66659 10.7512 5.66659 17.0002C5.66659 23.2491 10.751 28.3335 16.9999 28.3335C23.2488 28.3335 28.3333 23.2491 28.3333 17.0002C28.3333 10.7512 23.2488 5.66683 16.9999 5.66683Z" fill="#E84A4A"/>
</svg>
