<svg width="48" height="48" viewBox="0 0 48 48" fill="none" xmlns="http://www.w3.org/2000/svg">
<path d="M18.1362 3.76739C16.4051 3.74471 14.5729 4.02398 12.6656 4.64624C12.6655 4.64627 12.6598 4.64624 12.6598 4.64624C12.5056 4.66513 12.3646 4.71846 12.2418 4.7967C11.9712 4.88968 11.7016 4.98001 11.4274 5.08961C2.0735 8.83433 -0.123223 16.4575 0.339429 21.9939C0.725017 26.6122 2.73367 29.5577 3.52102 30.6306C3.23907 30.8022 3.15861 30.7652 2.857 31.0662C2.48358 31.4389 2.11462 31.9563 2.02308 32.6463C1.93161 33.3363 2.18598 34.1034 2.73012 34.7498C4.6584 37.0401 7.49297 36.766 8.10506 36.6912C8.43426 37.1497 9.81308 39.2399 13.1911 40.7283C16.93 42.3757 22.5762 42.8124 29.7633 38.4783C30.2364 38.193 30.3886 37.5782 30.1031 37.1052C29.8177 36.6321 29.2029 36.48 28.7299 36.7655C21.9781 40.8372 17.1994 40.3099 13.9956 38.8983C10.7918 37.4867 9.22019 35.1483 9.22019 35.1483C9.00891 34.8323 8.63632 34.6635 8.25927 34.7127C8.25927 34.7127 5.52018 34.9625 4.25933 33.4647C3.97473 33.1268 3.9876 33.005 3.99969 32.912C4.01103 32.819 4.093 32.6636 4.27328 32.4842C4.63272 32.1255 5.25565 31.8416 5.25565 31.8416C5.87886 31.5884 6.07936 30.8043 5.65416 30.283C5.65416 30.283 2.73818 26.6908 2.33185 21.8241C1.92218 16.9213 3.56151 10.3937 12.1658 6.94904C12.4855 6.82091 12.8003 6.70755 13.1131 6.60134C13.5605 6.57111 14.8121 6.53295 16.0038 6.92753C16.738 7.17055 17.3944 7.55416 17.8417 8.1599C18.289 8.76568 18.5864 9.62596 18.4685 11.0388C18.351 12.4493 17.8888 13.3248 17.3318 13.867C16.7748 14.4092 16.0846 14.6485 15.3534 14.6638C13.8911 14.694 12.5004 13.7517 12.3573 12.4998C12.1736 10.892 12.6574 10.4841 13.1542 10.1892C13.6511 9.89443 14.2244 9.88646 14.2244 9.88646C14.7751 9.8978 15.229 9.45674 15.2362 8.90599C15.2475 8.35754 14.81 7.90466 14.2616 7.89427C14.2616 7.89427 13.1823 7.8565 12.1347 8.4783C11.087 9.09992 10.1381 10.5559 10.3865 12.7302C10.6692 15.2023 13.0488 16.7051 15.3904 16.656C16.5612 16.6295 17.778 16.2005 18.7206 15.283C19.6631 14.3655 20.2987 12.9903 20.4471 11.2087C20.5953 9.42952 20.1904 8.0086 19.4353 6.98612C19.0589 6.47619 18.611 6.0733 18.1307 5.75756C19.953 5.78024 21.6276 6.18302 23.1639 6.84742C26.2487 8.1813 28.7747 10.622 30.5389 13.2986C33.5056 17.7999 32.4881 23.0056 32.4881 23.0056C32.3816 23.5452 32.7304 24.0696 33.2693 24.1794C33.8122 24.2909 34.3422 23.9398 34.451 23.3962C34.451 23.3962 35.6755 17.4618 32.2068 12.1989C30.2702 9.26055 27.4933 6.54285 23.9608 5.01539C22.1945 4.2517 20.2396 3.79305 18.1362 3.76739ZM27.8941 26.1189C27.8714 26.12 27.8494 26.1223 27.8275 26.1265C27.6544 26.1454 27.4892 26.2108 27.349 26.3139C26.4462 26.9809 24.9212 26.9331 24.9212 26.9331C24.3745 26.8923 23.8981 27.3024 23.8567 27.8491C23.8125 28.3953 24.2188 28.8741 24.7649 28.9195C24.7649 28.9195 26.8433 29.1621 28.5306 27.9155C28.9746 27.5886 29.0676 26.9628 28.7378 26.521C28.5397 26.2546 28.223 26.1034 27.8941 26.1189ZM17.7729 28.5017C17.5458 28.5028 17.325 28.5811 17.1479 28.7263C16.1399 29.5457 14.6382 29.3688 14.6382 29.3688C14.0982 29.2864 13.5931 29.6557 13.5073 30.195C13.4215 30.7377 13.7927 31.2469 14.3355 31.3317C14.3355 31.3317 16.5942 31.7388 18.4019 30.2692C18.8295 29.9215 18.8927 29.2924 18.5425 28.8669C18.3754 28.662 18.1336 28.5316 17.8705 28.5055C17.8365 28.5025 17.805 28.5017 17.7729 28.5017ZM37.1812 29.576C36.9034 29.5749 36.6781 29.8001 36.6792 30.0779V31.4276H35.3296C35.0518 31.4265 34.8266 31.6517 34.8276 31.9295V34.1228C34.8309 34.3976 35.0552 34.6181 35.3296 34.617H36.6792V35.9744C36.6781 36.2522 36.9033 36.4774 37.1812 36.4764H39.3745C39.6493 36.4731 39.8697 36.2488 39.8686 35.9744V34.617H41.2281C41.5028 34.6181 41.7268 34.3974 41.73 34.1228V31.9295C41.7311 31.6517 41.5059 31.4265 41.2281 31.4276H39.8686V30.0779C39.8697 29.8031 39.6491 29.5792 39.3745 29.576H37.1812ZM37.6831 30.5721H38.8726V31.9295C38.8715 32.2073 39.0967 32.4325 39.3745 32.4314H40.7261V33.6209H39.3745C39.0967 33.6199 38.8715 33.845 38.8726 34.1228V35.4725H37.6831V34.1228C37.6842 33.845 37.459 33.6199 37.1812 33.6209H35.8316V32.4314H37.1812C37.459 32.4325 37.6842 32.2073 37.6831 31.9295V30.5721ZM24.4077 33.8689C24.2131 33.8765 24.0237 33.9449 23.8647 34.0624C23.4587 34.3637 22.8902 34.4101 22.8902 34.4101C22.3417 34.4215 21.9054 34.8734 21.9155 35.4219C21.9269 35.9734 22.3836 36.411 22.935 36.3965C22.935 36.3965 24.0536 36.4002 25.0542 35.6582C25.4945 35.3316 25.587 34.7103 25.2613 34.2695C25.1029 34.0567 24.8659 33.9162 24.6031 33.8789C24.5381 33.8676 24.4727 33.8689 24.4077 33.8689Z" fill="black"/>
<path d="M34.4956 25.3006C33.0015 25.3195 31.3211 25.9555 30.0875 27.7673C28.4522 30.1692 28.8405 32.584 29.6675 34.1736C30.4946 35.7632 31.7262 36.7205 31.7262 36.7205L37.5074 42.0662C37.7229 42.2468 38.0044 42.3277 38.2828 42.2888C38.5606 42.327 38.8414 42.2461 39.0563 42.0662L44.8374 36.7205C44.8374 36.7205 46.069 35.7632 46.8961 34.1736C47.7231 32.584 48.1114 30.1692 46.4761 27.7673C44.8313 25.3515 42.3921 25.0296 40.6597 25.4627C39.6284 25.7204 38.8102 26.1723 38.2828 26.5095C37.7553 26.1724 36.9372 25.7205 35.9058 25.4627C35.4727 25.3546 34.9937 25.2938 34.4956 25.3006ZM34.2712 27.2459C34.6561 27.2383 35.0417 27.3022 35.4255 27.3982C36.6539 27.7055 37.6482 28.4744 37.6482 28.4744C37.7128 28.5122 37.7815 28.542 37.8534 28.5643C37.9032 28.5907 37.9557 28.6142 38.0094 28.6327C38.0986 28.6554 38.1909 28.6667 38.2828 28.663C38.3758 28.6655 38.4683 28.6554 38.5582 28.6327C38.6092 28.6138 38.6591 28.5926 38.7068 28.5662C38.7805 28.5435 38.8512 28.5129 38.9177 28.4744C38.9177 28.4744 39.91 27.7053 41.1384 27.3982C42.3668 27.0909 43.6036 27.0875 44.8298 28.8884C46.0656 30.7034 45.7383 32.0952 45.1326 33.2595C44.5268 34.4238 43.6052 35.1638 43.6052 35.1638C43.5863 35.1789 43.5712 35.1978 43.5526 35.2144L38.2831 40.0778L33.0195 35.2144C33.0006 35.1956 32.9809 35.1804 32.9609 35.1638C32.9609 35.1638 32.0374 34.4238 31.4316 33.2595C30.8258 32.0952 30.4985 30.7034 31.7343 28.8884C32.5774 27.6502 33.4243 27.2659 34.2712 27.2459Z" fill="black"/>
</svg>
